<svg xmlns="http://www.w3.org/2000/svg" width="180.028" height="34.33" viewBox="0 0 180.028 34.33"><defs><style>.a{fill:#010202;}.b{fill:#f39200;}</style></defs><g transform="translate(113.89 0)"><path d="M124.86,6.546a7.265,7.265,0,0,1-.45,2.612,5.726,5.726,0,0,1-1.281,2.012,5.576,5.576,0,0,1-1.982,1.291,7.03,7.03,0,0,1-2.562.46H113.81V.16h4.774a6.79,6.79,0,0,1,2.562.46,5.647,5.647,0,0,1,3.263,3.323A7.209,7.209,0,0,1,124.86,6.546Zm-1.782,0a6.528,6.528,0,0,0-.32-2.1,4.42,4.42,0,0,0-.911-1.571,3.935,3.935,0,0,0-1.421-.981,5.052,5.052,0,0,0-1.862-.34h-3.033V11.52h3.033a4.855,4.855,0,0,0,1.862-.34,3.95,3.95,0,0,0,1.421-.971,4.527,4.527,0,0,0,.911-1.561A6.265,6.265,0,0,0,123.078,6.546Z" transform="translate(-113.79 0)"/><path d="M129.242,12.921H127.51V.16h1.732Z" transform="translate(-113.778 0)"/><path d="M138.356,11.66a9.258,9.258,0,0,0,.951-.05,4.861,4.861,0,0,0,.811-.15,4.059,4.059,0,0,0,.721-.24c.22-.1.45-.2.681-.32V8.087h-1.982a.362.362,0,0,1-.27-.1.31.31,0,0,1-.1-.24V6.766h3.923V11.66a7.861,7.861,0,0,1-1,.611,6.729,6.729,0,0,1-1.111.43,7.925,7.925,0,0,1-1.271.26,11.248,11.248,0,0,1-1.471.08,6.537,6.537,0,0,1-2.542-.48A5.851,5.851,0,0,1,133.7,11.23a5.984,5.984,0,0,1-1.3-2.062,7.255,7.255,0,0,1-.47-2.642,7.325,7.325,0,0,1,.46-2.662A5.725,5.725,0,0,1,135.763.47a7.429,7.429,0,0,1,2.7-.47,8.969,8.969,0,0,1,1.411.11,6.509,6.509,0,0,1,1.211.32A5.919,5.919,0,0,1,143,1.611l-.49.781a.448.448,0,0,1-.39.24.592.592,0,0,1-.31-.1c-.15-.08-.31-.18-.5-.3a4.164,4.164,0,0,0-.671-.34,5.747,5.747,0,0,0-.931-.28,5.994,5.994,0,0,0-1.281-.12,5.255,5.255,0,0,0-1.952.35,4.191,4.191,0,0,0-1.491,1.011,4.462,4.462,0,0,0-.941,1.581,6.241,6.241,0,0,0-.33,2.092,6.284,6.284,0,0,0,.34,2.162,4.566,4.566,0,0,0,.971,1.611A4.335,4.335,0,0,0,136.5,11.31,4.5,4.5,0,0,0,138.356,11.66Z" transform="translate(-113.774 0)"/><path d="M147.771,12.921H146.04V.16h1.732Z" transform="translate(-113.762 0)"/><path d="M159.889.15V1.6h-4.124v11.31h-1.732V1.6H149.89V.15Z" transform="translate(-113.758 0)"/><path d="M171.02,12.921h-1.331a.549.549,0,0,1-.37-.12.747.747,0,0,1-.21-.29l-1.191-3.083h-5.725L161,12.511a.631.631,0,0,1-.21.28.587.587,0,0,1-.37.12H159.09L164.194.15h1.752Zm-8.367-4.744h4.764l-2-5.195a9.083,9.083,0,0,1-.38-1.2c-.07.24-.13.47-.19.671s-.12.38-.18.54Z" transform="translate(-113.75 0)"/><path d="M174.352,11.47h5.525v1.451H172.63V.16h1.731V11.47Z" transform="translate(-113.738 0)"/><path d="M121.657,21.51v1.411h-6.125v4.244H120.5v1.351h-4.964V32.87h6.125v1.411H113.79V21.52h7.867Z" transform="translate(-113.79 0.019)"/><path d="M122.66,21.51h1.381a.549.549,0,0,1,.37.12.681.681,0,0,1,.21.29l3.6,9.008c.08.2.16.42.23.661s.13.48.2.741c.05-.25.11-.5.17-.741a3.933,3.933,0,0,1,.22-.661l3.593-9.008a.764.764,0,0,1,.21-.28.541.541,0,0,1,.37-.13h1.391l-5.2,12.761h-1.561Z" transform="translate(-113.782 0.019)"/><path d="M144.107,21.51v1.411h-6.125v4.244h4.964v1.351h-4.964V32.87h6.125v1.411H136.24V21.52h7.867Z" transform="translate(-113.77 0.019)"/><path d="M147.811,21.57a.9.9,0,0,1,.25.24l7.4,9.618c-.02-.15-.03-.3-.04-.45s-.01-.29-.01-.42V21.52h1.511V34.281h-.871a.687.687,0,0,1-.34-.07.973.973,0,0,1-.27-.24l-7.386-9.608c.01.15.02.29.03.44s.01.27.01.39v9.1H146.58V21.53h.891A.566.566,0,0,1,147.811,21.57Z" transform="translate(-113.761 0.019)"/><path d="M168.729,21.51v1.451h-4.124v11.31h-1.732V22.961H158.73V21.51h10Z" transform="translate(-113.751 0.019)"/></g><g transform="translate(0 0.14)"><path d="M17.315,29.366a15.785,15.785,0,0,0,3.663-.38,14.961,14.961,0,0,0,2.973-1.051V21.849H19.767a1.324,1.324,0,0,1-.951-.33,1.121,1.121,0,0,1-.35-.821V17.185H29.6V30.717a18.564,18.564,0,0,1-2.652,1.611A17.21,17.21,0,0,1,24,33.449a23.252,23.252,0,0,1-3.343.661,30.72,30.72,0,0,1-3.843.22,17.352,17.352,0,0,1-6.726-1.271A15.8,15.8,0,0,1,1.261,24.1,18.3,18.3,0,0,1,0,17.235a18.807,18.807,0,0,1,1.231-6.916,15.213,15.213,0,0,1,8.958-8.928A19.847,19.847,0,0,1,17.405.14a18.839,18.839,0,0,1,7.1,1.211,16.246,16.246,0,0,1,5.074,3.163l-1.8,2.822a1.623,1.623,0,0,1-1.411.861,2.05,2.05,0,0,1-1.131-.37c-.49-.29-1-.591-1.511-.881a10.289,10.289,0,0,0-1.711-.761,14.955,14.955,0,0,0-2.1-.53,15.4,15.4,0,0,0-2.692-.21,11.607,11.607,0,0,0-4.474.831A9.468,9.468,0,0,0,9.328,8.657a10.716,10.716,0,0,0-2.172,3.723A14.573,14.573,0,0,0,6.4,17.235a15.164,15.164,0,0,0,.811,5.145,10.671,10.671,0,0,0,2.272,3.8,9.811,9.811,0,0,0,3.463,2.372A11.459,11.459,0,0,0,17.315,29.366Z" transform="translate(0 -0.14)"/></g><g transform="translate(34.41 0.14)"><path d="M68.3,17.235a18.5,18.5,0,0,1-1.231,6.816,16.1,16.1,0,0,1-3.443,5.425,15.482,15.482,0,0,1-5.345,3.573,19.336,19.336,0,0,1-13.842,0,15.754,15.754,0,0,1-5.365-3.573,16.088,16.088,0,0,1-3.463-5.425,18.461,18.461,0,0,1-1.231-6.816,18.461,18.461,0,0,1,1.231-6.816,15.841,15.841,0,0,1,3.463-5.425,15.565,15.565,0,0,1,5.365-3.573,19.265,19.265,0,0,1,13.842.01A15.766,15.766,0,0,1,63.626,5a16.051,16.051,0,0,1,3.443,5.415A18.5,18.5,0,0,1,68.3,17.235Zm-6.386,0a15.511,15.511,0,0,0-.731-4.944,10.5,10.5,0,0,0-2.092-3.713,9.012,9.012,0,0,0-3.323-2.332,11.449,11.449,0,0,0-4.414-.811,11.573,11.573,0,0,0-4.424.811,9.2,9.2,0,0,0-3.343,2.332,10.549,10.549,0,0,0-2.122,3.713,15.46,15.46,0,0,0-.741,4.944,15.4,15.4,0,0,0,.741,4.934,10.268,10.268,0,0,0,2.122,3.7,9.062,9.062,0,0,0,3.343,2.322,12.448,12.448,0,0,0,8.838,0,9.19,9.19,0,0,0,3.323-2.322,10.215,10.215,0,0,0,2.092-3.7A15.4,15.4,0,0,0,61.914,17.235Z" transform="translate(-34.38 -0.14)"/></g><path class="a" d="M83.49,26.673l4.744-4.844c.9-.941,1.772-1.852,2.592-2.762a19.821,19.821,0,0,0,2.162-2.8,14.445,14.445,0,0,0,1.471-3.043,10.427,10.427,0,0,0,.55-3.463A9.879,9.879,0,0,0,94.239,5.8a8.809,8.809,0,0,0-2.152-3.043A9.694,9.694,0,0,0,88.764.811,12.693,12.693,0,0,0,84.481.12a13.79,13.79,0,0,0-4.194.621,10.105,10.105,0,0,0-5.975,4.914,12.693,12.693,0,0,0-1.361,4.274l3.043.54a4.4,4.4,0,0,0,.771.07,2.1,2.1,0,0,0,1.311-.39,2.364,2.364,0,0,0,.771-1.271,5.515,5.515,0,0,1,1.882-2.832A5.409,5.409,0,0,1,84.15,4.994a6.082,6.082,0,0,1,2.022.31,4.166,4.166,0,0,1,1.551.951,4.113,4.113,0,0,1,1,1.551,6.121,6.121,0,0,1,.35,2.142,8.75,8.75,0,0,1-.36,2.532,10.748,10.748,0,0,1-1.051,2.372,16.461,16.461,0,0,1-1.711,2.362c-.681.791-1.451,1.631-2.3,2.5L73.381,30.006a3.337,3.337,0,0,0-.781,1.171,3.449,3.449,0,0,0-.25,1.211V34.31h3.473Z" transform="translate(0.063 0)"/><path class="b" d="M89.926,27.27,96.952,34.3H82.91Z" transform="translate(0.073 0.024)"/></svg>